<?xml version="1.0" encoding="utf-8"?>
<!-- Generator: Adobe Illustrator 27.9.0, SVG Export Plug-In . SVG Version: 6.00 Build 0)  -->
<svg version="1.1" id="Layer_2" xmlns="http://www.w3.org/2000/svg" xmlns:xlink="http://www.w3.org/1999/xlink" x="0px" y="0px"
	 viewBox="0 0 1024 1024" style="enable-background:new 0 0 1024 1024;" xml:space="preserve">
<style type="text/css">
	.st0{fill:url(#SVGID_1_);}
	.st1{fill:url(#SVGID_00000176727774938921255830000011589898906493194375_);}
	.st2{fill:url(#SVGID_00000046307613404392868110000011030804609868166055_);}
	.st3{fill:#2ADBE5;}
	.st4{fill:url(#SVGID_00000047756479876853959290000014287287679608420772_);}
	.st5{fill:url(#SVGID_00000147212610843260739970000008066614060642242441_);}
	.st6{fill:url(#SVGID_00000101825279517820165570000011628381918263831451_);}
	.st7{fill:url(#SVGID_00000131354715725317977300000011582392237433560222_);}
	.st8{fill:url(#SVGID_00000097477402763737194370000001261686836326580897_);}
	.st9{fill:url(#SVGID_00000101817121323074407890000010425971323476410290_);}
	.st10{fill:#3CC896;}
	.st11{fill:#D5FCF1;}
	.st12{fill:#35C491;}
	.st13{fill:url(#SVGID_00000112614819900647024400000006052990665693570487_);}
	.st14{fill:none;stroke:#1A7954;stroke-miterlimit:10;}
</style>
<g>
	<linearGradient id="SVGID_1_" gradientUnits="userSpaceOnUse" x1="558.92" y1="365.98" x2="685.01" y2="365.98">
		<stop  offset="0" style="stop-color:#5B6CCD"/>
		<stop  offset="1" style="stop-color:#41CDEC"/>
	</linearGradient>
	<path class="st0" d="M685.01,362.36l-67.06,27.01l-59.03-30l37.62-15.35l22.35,15.7c1.57,1.1,3.37,1.64,5.17,1.64
		c2.44,0,4.87-1,6.63-2.91l14.57-15.86L685.01,362.36z"/>
	
		<linearGradient id="SVGID_00000090984192972774580670000008341781508973284799_" gradientUnits="userSpaceOnUse" x1="588.7316" y1="649.7162" x2="588.1155" y2="375.5194">
		<stop  offset="0" style="stop-color:#47188C"/>
		<stop  offset="1" style="stop-color:#7C37BB"/>
	</linearGradient>
	<polygon style="fill:url(#SVGID_00000090984192972774580670000008341781508973284799_);" points="617.95,389.37 617.67,528.22 
		617.67,530.46 617.38,673.99 558.92,646.04 558.92,359.37 	"/>
	
		<linearGradient id="SVGID_00000158709373705163194360000008521127285731014795_" gradientUnits="userSpaceOnUse" x1="651.1949" y1="665.1233" x2="651.1949" y2="384.3879">
		<stop  offset="0" style="stop-color:#5F3FC0"/>
		<stop  offset="1" style="stop-color:#30EAE9"/>
	</linearGradient>
	<polygon style="fill:url(#SVGID_00000158709373705163194360000008521127285731014795_);" points="685.01,362.36 685.01,651.87 
		617.38,673.99 617.95,389.37 	"/>
	<g>
		<path class="st3" d="M596.46,434.82c-2.51,0-4.56,2.34-4.56,5.2c0,2.62,1.71,4.79,3.91,5.14c0.21,0.04,0.43,0.06,0.65,0.06
			s0.44-0.02,0.65-0.06c2.21-0.35,3.92-2.52,3.92-5.14C601.03,437.16,598.98,434.82,596.46,434.82z M596.46,443.92
			c-1.8,0-3.26-1.75-3.26-3.9c0-2.15,1.46-3.9,3.26-3.9s3.27,1.75,3.27,3.9C599.73,442.17,598.26,443.92,596.46,443.92z"/>
	</g>
	<g>
		<path class="st3" d="M565.33,469.18c-2.24,0-4.06,2.4-4.06,5.34c0,2.95,1.82,5.34,4.06,5.34s4.06-2.39,4.06-5.34
			C569.39,471.58,567.57,469.18,565.33,469.18z M565.33,478.56c-1.53,0-2.76-1.81-2.76-4.04c0-2.23,1.23-4.04,2.76-4.04
			c1.52,0,2.76,1.81,2.76,4.04C568.09,476.75,566.85,478.56,565.33,478.56z"/>
	</g>
	<g>
		<path class="st3" d="M609.16,535.62c-0.72,0-1.39,0.17-1.99,0.47c-0.39,0.19-0.75,0.44-1.07,0.74c-0.89,0.82-1.44,2-1.44,3.3
			c0,2.48,2.02,4.5,4.5,4.5c2.48,0,4.5-2.02,4.5-4.5C613.66,537.64,611.64,535.62,609.16,535.62z M609.16,543.33
			c-1.77,0-3.2-1.44-3.2-3.2c0-1.77,1.43-3.21,3.2-3.21c1.76,0,3.2,1.44,3.2,3.21C612.36,541.89,610.92,543.33,609.16,543.33z"/>
	</g>
	<g>
		<path class="st3" d="M615.28,577.21c-0.32-1.27-0.96-2.37-1.82-3.12c-0.55-0.47-1.14-0.77-1.73-0.88
			c-0.42-0.09-0.85-0.08-1.26,0.02c-0.01,0-0.03,0.01-0.04,0.01c-0.98,0.27-1.75,1.04-2.18,2.17c-0.39,1.06-0.44,2.35-0.12,3.61
			s0.97,2.37,1.83,3.11c0.71,0.62,1.5,0.95,2.29,0.95c0.23,0,0.46-0.03,0.69-0.09c1-0.25,1.79-1.03,2.22-2.17
			C615.56,579.75,615.6,578.47,615.28,577.21z M613.94,580.36c-0.27,0.74-0.74,1.22-1.32,1.37c-0.57,0.15-1.21-0.06-1.81-0.58
			c-0.66-0.57-1.16-1.44-1.42-2.45c-0.25-1.01-0.22-2.02,0.08-2.84c0.28-0.74,0.75-1.22,1.32-1.37c0.12-0.03,0.25-0.04,0.37-0.04
			c0.47,0,0.97,0.21,1.44,0.62c0.66,0.58,1.17,1.45,1.42,2.45v0.01C614.28,578.53,614.25,579.54,613.94,580.36z"/>
	</g>
	<g>
		<path class="st3" d="M587.07,573.41c-1.63-2.18-4.3-3.01-6.25-2.06c-0.2,0.1-0.4,0.22-0.59,0.36c-0.17,0.13-0.33,0.27-0.46,0.42
			c-0.69,0.72-1.08,1.71-1.1,2.83c-0.04,1.3,0.41,2.65,1.27,3.79c0.86,1.14,2.03,1.96,3.29,2.29c0.41,0.11,0.82,0.16,1.21,0.16
			c0.87,0,1.67-0.26,2.34-0.76c0.98-0.73,1.53-1.88,1.57-3.24v-0.12C588.35,575.82,587.9,574.51,587.07,573.41z M586,579.4
			c-0.65,0.49-1.52,0.63-2.44,0.38c-0.98-0.26-1.89-0.9-2.58-1.81c-0.68-0.91-1.04-1.97-1.02-2.98c0.03-0.95,0.4-1.75,1.05-2.24
			c0.46-0.34,1-0.5,1.57-0.5c1.2,0,2.52,0.7,3.45,1.93c0.68,0.91,1.05,1.97,1.02,2.99C587.02,578.12,586.65,578.92,586,579.4z"/>
	</g>
	<g>
		<path class="st3" d="M602.59,631.46c-0.21-0.03-0.43-0.04-0.65-0.04s-0.44,0.01-0.65,0.04c-2.77,0.34-4.92,2.79-4.92,5.75
			c0,3.19,2.5,5.79,5.57,5.79c3.08,0,5.58-2.6,5.58-5.79C607.52,634.25,605.37,631.8,602.59,631.46z M601.94,641.7
			c-2.36,0-4.27-2.02-4.27-4.49c0-2.48,1.91-4.49,4.27-4.49c2.36,0,4.28,2.01,4.28,4.49C606.22,639.68,604.3,641.7,601.94,641.7z"/>
	</g>
	<g>
		<circle class="st3" cx="578.21" cy="549.47" r="3.32"/>
	</g>
	<g>
		<polygon class="st3" points="602.59,632.07 601.29,632.07 601.29,602.09 593.19,589.97 593.19,560.68 572.32,528 572.32,498.07 
			562.65,483.53 563.74,482.81 573.62,497.68 573.62,527.62 594.49,560.31 594.49,589.57 602.59,601.7 		"/>
	</g>
	<g>
		<polygon class="st3" points="611.73,573.8 610.43,573.8 610.43,562.02 579.39,515.2 579.39,480.24 574.15,477.15 574.82,476.03 
			580.69,479.5 580.69,514.8 611.73,561.62 		"/>
	</g>
	<g>
		<polygon class="st3" points="606.43,537.32 587.22,509.25 587.22,468.51 588.52,468.51 588.52,508.85 607.51,536.59 		"/>
	</g>
	<g>
		<polygon class="st3" points="579.68,469.83 578.38,469.83 578.38,438.01 572.7,429.55 572.7,416.59 574,416.59 574,429.15 
			579.68,437.61 		"/>
	</g>
	<g>
		<polygon class="st3" points="617.67,528.22 617.67,530.46 595.81,499.66 595.81,444.57 597.11,444.57 597.11,499.25 		"/>
	</g>
	<g>
		
			<rect x="571.26" y="543.51" transform="matrix(0.8314 -0.5557 0.5557 0.8314 -214.3096 412.0917)" class="st3" width="1.3" height="31.36"/>
	</g>
</g>
<g>
	
		<linearGradient id="SVGID_00000084517095332997793570000006260048967147123083_" gradientUnits="userSpaceOnUse" x1="438.4737" y1="426.1105" x2="565.3263" y2="426.1105">
		<stop  offset="0" style="stop-color:#5B6CCD"/>
		<stop  offset="1" style="stop-color:#41CDEC"/>
	</linearGradient>
	<polygon style="fill:url(#SVGID_00000084517095332997793570000006260048967147123083_);" points="506.27,401.05 438.47,424.17 
		497.87,451.17 565.33,427.96 	"/>
	
		<linearGradient id="SVGID_00000141449178527128726260000016521754196549183163_" gradientUnits="userSpaceOnUse" x1="468.4413" y1="686.6334" x2="467.8843" y2="438.7621">
		<stop  offset="0" style="stop-color:#47188C"/>
		<stop  offset="1" style="stop-color:#7C37BB"/>
	</linearGradient>
	<polygon style="fill:url(#SVGID_00000141449178527128726260000016521754196549183163_);" points="497.87,451.17 497.6,574.93 
		497.6,577.26 497.31,708.57 438.47,680.62 438.47,424.17 	"/>
	
		<linearGradient id="SVGID_00000040544677500319109380000005757025307737270159_" gradientUnits="userSpaceOnUse" x1="531.32" y1="654.1023" x2="531.32" y2="401.3134">
		<stop  offset="0" style="stop-color:#5F3FC0"/>
		<stop  offset="1" style="stop-color:#30EAE9"/>
	</linearGradient>
	<polygon style="fill:url(#SVGID_00000040544677500319109380000005757025307737270159_);" points="565.33,427.96 565.33,685.83 
		540.4,694.16 539.1,694.6 528.27,698.22 526.97,698.65 510.51,704.16 509.21,704.59 497.31,708.57 497.6,577.26 497.6,574.93 
		497.87,451.17 522.19,442.8 523.49,442.36 534.93,438.42 536.23,437.97 548.19,433.86 549.49,433.41 557.29,430.73 558.59,430.28 	
		"/>
	<g>
		<path class="st3" d="M475.77,480.23c-2.5,0-4.54,2.24-4.54,4.98c0,2.5,1.7,4.58,3.89,4.92c0.21,0.04,0.43,0.06,0.65,0.06
			c0.22,0,0.44-0.02,0.65-0.06c2.19-0.34,3.88-2.42,3.88-4.92C480.3,482.47,478.27,480.23,475.77,480.23z M475.77,488.89
			c-1.78,0-3.24-1.65-3.24-3.68c0-2.03,1.46-3.68,3.24-3.68c1.78,0,3.23,1.65,3.23,3.68C479,487.24,477.55,488.89,475.77,488.89z"/>
	</g>
	<g>
		<path class="st3" d="M443.21,514.47c-2.19,0-4.05,1.39-4.74,3.33v3.45c0.63,1.74,2.19,3.04,4.09,3.28
			c0.22,0.04,0.43,0.05,0.65,0.05c0.22,0,0.43-0.01,0.65-0.05c2.48-0.31,4.41-2.44,4.41-5.01
			C448.27,516.73,446,514.47,443.21,514.47z M443.21,523.28c-2.07,0-3.75-1.69-3.75-3.76s1.68-3.75,3.75-3.75s3.76,1.68,3.76,3.75
			S445.28,523.28,443.21,523.28z"/>
	</g>
	<g>
		<path class="st3" d="M466.41,616.09c-1.42-2.82-4.45-4.17-6.74-3.01c-2.29,1.16-3,4.4-1.57,7.22c1.08,2.13,3.07,3.42,4.97,3.42
			c0.61,0,1.21-0.13,1.77-0.41c1.49-0.75,2.31-2.39,2.31-4.21C467.15,618.12,466.91,617.08,466.41,616.09z M464.25,622.15
			c-1.65,0.83-3.89-0.26-4.99-2.44c-1.1-2.18-0.66-4.63,1-5.47c0.37-0.19,0.78-0.28,1.2-0.28c1.41,0,2.94,1.04,3.79,2.72
			C466.35,618.86,465.9,621.31,464.25,622.15z"/>
	</g>
	<g>
		<path class="st3" d="M493.36,618.29c-0.91-1.03-2.05-1.71-3.18-1.98c-0.44-0.11-0.88-0.15-1.3-0.14c-0.86,0.04-1.67,0.32-2.3,0.88
			c-1.75,1.56-1.56,4.64,0.42,6.88c1.23,1.38,2.85,2.12,4.33,2.12c0.92,0,1.78-0.28,2.45-0.88c0.88-0.77,1.3-1.94,1.2-3.27
			C494.88,620.63,494.3,619.35,493.36,618.29z M492.92,624.2c-1.22,1.08-3.44,0.57-4.95-1.13c-1.5-1.7-1.74-3.97-0.53-5.05
			c0.44-0.38,1-0.56,1.61-0.56c1.1,0,2.37,0.6,3.34,1.69c0.75,0.85,1.21,1.86,1.29,2.85C493.75,622.92,493.48,623.7,492.92,624.2z"
			/>
	</g>
	<g>
		<path class="st3" d="M482.13,673.53c-0.21-0.04-0.43-0.05-0.65-0.05c-0.22,0-0.44,0.01-0.65,0.05c-2.51,0.33-4.45,2.58-4.45,5.29
			c0,2.95,2.29,5.34,5.1,5.34c2.82,0,5.11-2.39,5.11-5.34C486.59,676.11,484.65,673.86,482.13,673.53z M481.48,682.86
			c-2.09,0-3.8-1.81-3.8-4.04s1.71-4.04,3.8-4.04c2.1,0,3.81,1.81,3.81,4.04S483.58,682.86,481.48,682.86z"/>
	</g>
	<g>
		<path class="st3" d="M487.26,578.22c-0.77,0-1.5,0.25-2.13,0.69c-0.35,0.24-0.67,0.54-0.95,0.89c-0.81,0.98-1.31,2.35-1.31,3.86
			c0,2.99,1.97,5.43,4.39,5.43c2.43,0,4.4-2.44,4.4-5.43C491.66,580.66,489.69,578.22,487.26,578.22z M487.26,587.79
			c-1.7,0-3.09-1.85-3.09-4.13c0-2.28,1.39-4.14,3.09-4.14c1.71,0,3.1,1.86,3.1,4.14C490.36,585.94,488.97,587.79,487.26,587.79z"/>
	</g>
	<g>
		<circle class="st3" cx="457.61" cy="593.75" r="3.03"/>
	</g>
	<g>
		<polygon class="st3" points="497.6,574.93 497.6,577.26 475.12,543.74 475.12,489.54 476.42,489.54 476.42,543.34 		"/>
	</g>
	<g>
		<polygon class="st3" points="484.46,580.22 466.47,553.59 466.47,512 467.77,512 467.77,553.19 485.53,579.5 		"/>
	</g>
	<g>
		<polygon class="st3" points="459.18,515.12 457.88,515.12 457.88,481.15 452.32,475.6 452.32,461.18 453.62,461.18 453.62,475.06 
			459.18,480.62 		"/>
	</g>
	<g>
		<polygon class="st3" points="487.64,603.52 458.26,559.02 458.26,524.29 453.64,521.48 454.32,520.37 459.56,523.56 
			459.56,558.63 488.72,602.8 		"/>
	</g>
	<g>
		<rect x="488.88" y="603.46" class="st3" width="1.3" height="13.39"/>
	</g>
	<g>
		<polygon class="st3" points="482.13,674.13 480.83,674.13 480.83,645.35 472.02,631.96 472.02,602.59 473.32,602.59 
			473.32,631.57 482.13,644.96 		"/>
	</g>
	<g>
		<polygon class="st3" points="470.8,602.72 451.18,572.34 451.18,542.52 442.56,527.35 442.56,523.93 443.86,523.93 443.86,527.01 
			452.48,542.18 452.48,571.96 471.89,602.02 		"/>
	</g>
	<g>
		<path class="st3" d="M524.92,545.21c-0.81,0-1.55,0.29-2.12,0.77c-0.33,0.28-0.61,0.63-0.81,1.02c-0.24,0.45-0.37,0.96-0.37,1.51
			c0,1.82,1.48,3.3,3.3,3.3s3.3-1.48,3.3-3.3S526.74,545.21,524.92,545.21z M524.92,550.51c-1.1,0-2-0.89-2-2c0-1.1,0.9-2,2-2
			c1.11,0,2,0.9,2,2C526.92,549.62,526.03,550.51,524.92,550.51z"/>
	</g>
	<g>
		<circle class="st3" cx="529.71" cy="535.44" r="2.94"/>
	</g>
	<g>
		<circle class="st3" cx="528.52" cy="502.04" r="3.69"/>
	</g>
	<g>
		<path class="st3" d="M565.33,474.17v7.04c-0.21,0.29-0.45,0.57-0.71,0.83c-2.38,2.38-5.79,2.84-7.6,1.03
			c-1.81-1.82-1.35-5.22,1.03-7.6C560.3,473.22,563.46,472.69,565.33,474.17z"/>
	</g>
	<g>
		<path class="st3" d="M555.47,560.32c-2.58,0-4.69,2.1-4.69,4.69c0,2.37,1.76,4.33,4.04,4.64c0.21,0.03,0.43,0.05,0.65,0.05
			c0.22,0,0.44-0.02,0.65-0.05c2.29-0.31,4.05-2.27,4.05-4.64C560.17,562.42,558.06,560.32,555.47,560.32z M555.47,568.4
			c-1.87,0-3.39-1.52-3.39-3.39s1.52-3.39,3.39-3.39c1.87,0,3.4,1.52,3.4,3.39S557.34,568.4,555.47,568.4z"/>
	</g>
	<g>
		<path class="st3" d="M542.26,562.37c-1.65-1.64-4.78-1.19-6.98,1.01c-2.02,2.02-2.57,4.81-1.39,6.53
			c0.11,0.16,0.24,0.31,0.38,0.45c0.17,0.17,0.35,0.32,0.55,0.45h0.01c0.57,0.37,1.25,0.56,2.01,0.56c0.26,0,0.54-0.03,0.82-0.07
			c1.27-0.22,2.55-0.91,3.59-1.95c1.04-1.04,1.73-2.31,1.94-3.59C543.42,564.4,543.09,563.2,542.26,562.37z M541.91,565.55
			c-0.17,1.01-0.73,2.03-1.58,2.88c-0.85,0.85-1.88,1.42-2.89,1.58c-0.93,0.16-1.73-0.04-2.25-0.56c-1.14-1.14-0.69-3.45,1.01-5.15
			c1.06-1.06,2.36-1.64,3.47-1.64c0.66,0,1.25,0.21,1.67,0.63C541.86,563.81,542.06,564.61,541.91,565.55z"/>
	</g>
	<g>
		<path class="st3" d="M515.01,648.44c-0.12-0.02-0.24-0.02-0.37-0.02c-0.32,0-0.63,0.03-0.93,0.09c-2.37,0.44-4.17,2.52-4.17,5.02
			c0,2.81,2.29,5.1,5.1,5.1c2.82,0,5.11-2.29,5.11-5.1C519.75,650.84,517.66,648.62,515.01,648.44z M514.64,657.33
			c-2.09,0-3.8-1.71-3.8-3.8c0-2.1,1.71-3.81,3.8-3.81c2.1,0,3.8,1.71,3.8,3.81C518.44,655.62,516.74,657.33,514.64,657.33z"/>
	</g>
	<g>
		<polygon class="st3" points="558.59,430.28 558.59,459.09 547.41,471.78 547.41,510.69 544.14,513.35 543.32,512.34 
			546.11,510.07 546.11,471.29 557.29,458.6 557.29,430.73 		"/>
	</g>
	<g>
		<polygon class="st3" points="549.49,433.41 549.49,455.48 529.17,479 529.17,502.04 527.87,502.04 527.87,478.51 548.19,455 
			548.19,433.86 		"/>
	</g>
	<g>
		<polygon class="st3" points="515.96,482.38 515.96,523.62 527.7,533.27 527.63,533.36 527.59,533.4 527.27,533.79 527.26,533.81 
			526.88,534.27 514.66,524.23 514.66,481.92 534.93,456.53 534.93,438.42 536.23,437.97 536.23,456.99 		"/>
	</g>
	<g>
		<polygon class="st3" points="505.91,475.09 505.91,530.93 522.8,545.98 523.27,546.4 522.4,547.37 521.99,547 504.61,531.51 
			504.61,474.62 522.19,453.77 522.19,442.8 523.49,442.36 523.49,454.25 		"/>
	</g>
	<g>
		<circle class="st3" cx="542.78" cy="530.27" r="2.46"/>
	</g>
	<g>
		<polygon class="st3" points="565.33,501.26 565.33,503.43 545.55,529.68 545.03,529.28 544.51,528.89 544.66,528.69 		"/>
	</g>
	<g>
		<polygon class="st3" points="512.65,609.85 511.35,609.85 511.35,597.94 534.22,569.5 535.23,570.31 512.65,598.4 		"/>
	</g>
	<g>
		<rect x="513.71" y="609.85" class="st3" width="1.3" height="39.24"/>
	</g>
	<g>
		<polygon class="st3" points="556.12,569.05 556.12,593.2 533.64,623.96 533.58,659.84 510.51,689.89 510.51,704.16 509.21,704.59 
			509.21,689.45 532.28,659.4 532.34,623.53 554.82,592.78 554.82,569.05 		"/>
	</g>
	<g>
		<polygon class="st3" points="565.33,599.75 565.33,601.93 542.86,632.05 542.86,670.12 528.27,691.71 528.27,698.22 
			526.97,698.65 526.97,691.32 541.56,669.72 541.56,631.62 		"/>
	</g>
	<g>
		<polygon class="st3" points="565.33,619.22 565.33,621.48 552.33,639.99 552.33,673.36 540.4,688.71 540.4,694.16 539.1,694.6 
			539.1,688.26 551.03,672.91 551.03,639.58 		"/>
	</g>
</g>
<g>
	
		<linearGradient id="SVGID_00000101798158905944208000000008261990756771408009_" gradientUnits="userSpaceOnUse" x1="316.1684" y1="488.2105" x2="441.4105" y2="488.2105">
		<stop  offset="0" style="stop-color:#5B6CCD"/>
		<stop  offset="1" style="stop-color:#41CDEC"/>
	</linearGradient>
	<polygon style="fill:url(#SVGID_00000101798158905944208000000008261990756771408009_);" points="382.36,462.82 316.17,485.94 
		373.96,513.6 441.41,489.73 	"/>
	
		<linearGradient id="SVGID_00000060009691516079569420000018317901967832453293_" gradientUnits="userSpaceOnUse" x1="345.3553" y1="743.973" x2="344.7753" y2="485.8757">
		<stop  offset="0" style="stop-color:#47188C"/>
		<stop  offset="1" style="stop-color:#7C37BB"/>
	</linearGradient>
	<polygon style="fill:url(#SVGID_00000060009691516079569420000018317901967832453293_);" points="373.96,513.6 373.69,621.17 
		373.69,622.76 373.39,743.91 316.17,715.96 316.17,485.94 	"/>
	
		<linearGradient id="SVGID_00000119828762706869184550000000498553163402591677_" gradientUnits="userSpaceOnUse" x1="407.4" y1="736.6783" x2="407.4" y2="507.699">
		<stop  offset="0" style="stop-color:#5F3FC0"/>
		<stop  offset="1" style="stop-color:#30EAE9"/>
	</linearGradient>
	<polygon style="fill:url(#SVGID_00000119828762706869184550000000498553163402591677_);" points="441.41,489.73 441.41,721.17 
		420.78,728.07 419.48,728.5 412.28,730.91 410.98,731.34 373.39,743.91 373.96,513.6 	"/>
	<g>
		<path class="st3" d="M352.03,517.65c-0.98,0-1.93-0.44-2.72-1.28c-0.84-0.89-1.39-2.13-1.55-3.49c-0.16-1.36,0.08-2.69,0.68-3.76
			c0.64-1.13,1.61-1.82,2.72-1.95c1.11-0.13,2.22,0.31,3.11,1.25c0.84,0.89,1.39,2.13,1.55,3.49c0.35,2.88-1.18,5.44-3.4,5.71
			C352.29,517.64,352.16,517.65,352.03,517.65z M351.54,508.45c-0.08,0-0.15,0-0.23,0.01c-0.69,0.08-1.31,0.55-1.75,1.3
			c-0.47,0.82-0.65,1.87-0.52,2.96c0.13,1.09,0.56,2.06,1.21,2.75c0.6,0.63,1.31,0.94,2.01,0.85c1.51-0.18,2.53-2.09,2.27-4.26l0,0
			c-0.13-1.09-0.56-2.06-1.21-2.75C352.79,508.76,352.16,508.45,351.54,508.45z"/>
	</g>
	<g>
		<polygon class="st3" points="317.7,633.28 316.4,633.28 316.4,631.5 324.55,623.41 324.55,589.78 343.43,573.68 343.43,550.31 
			351.31,545.39 351.31,516.99 352.61,516.99 352.61,546.11 344.73,551.03 344.73,574.28 325.85,590.38 325.85,623.96 317.7,632.04 
					"/>
	</g>
	<g>
		<polygon class="st3" points="329.94,542.03 316.17,551.55 316.17,549.98 329.2,540.96 		"/>
	</g>
	<g>
		<path class="st3" d="M333.86,545.95c-0.56,0-1.17-0.17-1.78-0.52c-0.98-0.55-1.89-1.5-2.57-2.67c-0.67-1.17-1.04-2.43-1.03-3.56
			c0.01-1.25,0.48-2.21,1.32-2.69c1.64-0.95,4.08,0.32,5.56,2.88l0,0c1.48,2.56,1.35,5.3-0.29,6.25
			C334.7,545.85,334.29,545.95,333.86,545.95z M331,537.5c-0.21,0-0.4,0.04-0.55,0.13c-0.42,0.24-0.66,0.82-0.67,1.58
			c-0.01,0.9,0.29,1.93,0.85,2.9c0.56,0.97,1.3,1.75,2.08,2.19c0.67,0.37,1.28,0.45,1.7,0.21c0.85-0.49,0.98-2.45-0.19-4.48l0,0
			C333.28,538.38,331.93,537.5,331,537.5z"/>
	</g>
	<g>
		<path class="st3" d="M362.78,579.18c-2.41,0-4.38-2.15-4.38-4.79s1.96-4.79,4.38-4.79s4.38,2.15,4.38,4.79
			S365.19,579.18,362.78,579.18z M362.78,570.9c-1.7,0-3.08,1.56-3.08,3.49s1.38,3.49,3.08,3.49s3.08-1.56,3.08-3.49
			S364.48,570.9,362.78,570.9z"/>
	</g>
	<g>
		<polygon class="st3" points="333.87,647.94 332.57,647.94 332.63,611.76 362.13,586.44 362.13,578.53 363.43,578.53 
			363.43,587.04 333.93,612.36 		"/>
	</g>
	<g>
		<circle class="st3" cx="330.6" cy="647.94" r="2.31"/>
	</g>
	<g>
		<polygon class="st3" points="327.02,711.63 325.72,711.63 325.72,692.1 329.95,688.44 329.95,650.24 331.25,650.24 331.25,689.03 
			327.02,692.7 		"/>
	</g>
	<g>
		<polygon class="st3" points="342.46,662.27 341.16,662.27 341.16,623.32 358.47,608.5 359.32,609.48 342.46,623.92 		"/>
	</g>
	<g>
		<path class="st3" d="M362.09,611.72c-2.41,0-4.37-2.19-4.37-4.89s1.96-4.89,4.37-4.89c2.41,0,4.37,2.19,4.37,4.89
			S364.5,611.72,362.09,611.72z M362.09,603.24c-1.69,0-3.07,1.61-3.07,3.59s1.38,3.59,3.07,3.59s3.07-1.61,3.07-3.59
			S363.78,603.24,362.09,603.24z"/>
	</g>
	<g>
		<polygon class="st3" points="373.69,621.17 373.69,622.76 351,638.74 351,690.06 349.7,690.06 349.7,638.06 		"/>
	</g>
	<g>
		<path class="st3" d="M350.35,700.65c-2.38,0-4.31-2.49-4.31-5.55c0-3.06,1.93-5.55,4.31-5.55s4.31,2.49,4.31,5.55
			C354.66,698.15,352.73,700.65,350.35,700.65z M350.35,690.84c-1.66,0-3.01,1.91-3.01,4.25c0,2.35,1.35,4.25,3.01,4.25
			s3.01-1.91,3.01-4.25C353.36,692.75,352.01,690.84,350.35,690.84z"/>
	</g>
	<g>
		<path class="st3" d="M316.17,638.16v1.3c1.97,0,3.58,1.61,3.58,3.58c0,1.98-1.61,3.58-3.58,3.58v1.3c2.69,0,4.88-2.19,4.88-4.88
			S318.86,638.16,316.17,638.16z"/>
	</g>
	<g>
		<circle class="st3" cx="329.29" cy="561.82" r="2.81"/>
	</g>
	<g>
		<path class="st3" d="M405.13,602.36c-2.76,0-5.01-2.25-5.01-5.01c0-2.76,2.25-5.01,5.01-5.01s5.01,2.25,5.01,5.01
			C410.13,600.11,407.89,602.36,405.13,602.36z M405.13,593.64c-2.04,0-3.71,1.66-3.71,3.71c0,2.04,1.66,3.71,3.71,3.71
			s3.71-1.66,3.71-3.71C408.83,595.3,407.17,593.64,405.13,593.64z"/>
	</g>
	<g>
		<path class="st3" d="M406.25,639.79c-0.8,0-1.52-0.24-2.1-0.72c-1.77-1.46-1.54-4.57,0.52-7.07c0.95-1.16,2.16-2,3.4-2.37
			c1.33-0.4,2.55-0.22,3.44,0.51c1.77,1.46,1.54,4.57-0.52,7.07c-0.95,1.16-2.16,2-3.4,2.37
			C407.12,639.72,406.67,639.79,406.25,639.79z M409.41,630.73c-0.3,0-0.62,0.05-0.96,0.15c-1,0.3-1.98,0.99-2.77,1.95
			c-1.55,1.88-1.87,4.27-0.7,5.24c0.54,0.44,1.33,0.54,2.24,0.27c1-0.3,1.98-0.99,2.77-1.95c1.55-1.88,1.87-4.27,0.7-5.24
			C410.35,630.88,409.91,630.73,409.41,630.73z"/>
	</g>
	<g>
		<path class="st3" d="M422.29,638.03c-0.73,0-1.41-0.22-1.96-0.67c-1.63-1.35-1.43-4.2,0.47-6.5c1.89-2.3,4.66-3.04,6.29-1.69
			c0.82,0.67,1.2,1.75,1.07,3.03c-0.12,1.18-0.66,2.42-1.54,3.47l0,0C425.37,637.19,423.73,638.03,422.29,638.03z M425.14,629.81
			c-1.05,0-2.36,0.7-3.34,1.88c-1.38,1.68-1.68,3.81-0.64,4.67c1.04,0.85,3.08,0.16,4.46-1.52l0,0c0.71-0.86,1.15-1.85,1.25-2.78
			c0.08-0.83-0.13-1.5-0.6-1.89C425.96,629.92,425.58,629.81,425.14,629.81z"/>
	</g>
	<g>
		<path class="st3" d="M438.85,643.11c0.29-0.08,0.57-0.12,0.83-0.12c0.5,0,0.94,0.14,1.28,0.43c0.18,0.15,0.34,0.34,0.45,0.57
			v-1.84c-0.8-0.48-1.81-0.59-2.91-0.29c-1.18,0.32-2.32,1.09-3.21,2.17c-1.88,2.29-2.04,5.28-0.35,6.68
			c0.58,0.47,1.3,0.72,2.1,0.72c0.38,0,0.77-0.06,1.18-0.17c0.55-0.15,1.09-0.39,1.59-0.72c0.47-0.3,0.9-0.66,1.3-1.09
			c0.11-0.11,0.21-0.22,0.3-0.34v-2.57c-0.2,0.6-0.54,1.19-0.98,1.72c-0.72,0.87-1.63,1.49-2.55,1.75
			c-0.85,0.23-1.59,0.12-2.11-0.31c-1.12-0.92-0.88-3.14,0.53-4.84C437.02,643.98,437.92,643.37,438.85,643.11z"/>
	</g>
	<g>
		<path class="st3" d="M438.47,679.63c1.23,0,2.31,0.63,2.94,1.58v-1.88c-0.82-0.63-1.83-1-2.94-1c-2.65,0-4.81,2.16-4.81,4.82
			c0,0.99,0.3,1.91,0.81,2.67c0.25,0.37,0.54,0.7,0.88,0.99c0.84,0.73,1.93,1.16,3.12,1.16c1.11,0,2.12-0.37,2.94-1.01v-1.87
			c-0.63,0.95-1.71,1.58-2.94,1.58c-1.94,0-3.51-1.58-3.51-3.52S436.53,679.63,438.47,679.63z"/>
	</g>
	<g>
		<path class="st3" d="M384.57,724.12c-2.87,0-5.2-2.33-5.2-5.2c0-2.87,2.33-5.2,5.2-5.2s5.2,2.33,5.2,5.2
			C389.77,721.79,387.43,724.12,384.57,724.12z M384.57,715.03c-2.15,0-3.9,1.75-3.9,3.9c0,2.15,1.75,3.9,3.9,3.9s3.9-1.75,3.9-3.9
			C388.47,716.78,386.72,715.03,384.57,715.03z"/>
	</g>
	<g>
		<polygon class="st3" points="441.41,594.11 441.41,595.71 433.25,589.83 409.7,597.96 409.27,596.73 433.46,588.38 		"/>
	</g>
	<g>
		<polygon class="st3" points="383.58,678.57 382.28,678.57 382.28,664.88 382.42,664.71 404.06,638.16 405.07,638.98 
			383.58,665.35 		"/>
	</g>
	<g>
		<rect x="383.92" y="678.19" class="st3" width="1.3" height="36.19"/>
	</g>
	<g>
		<polygon class="st3" points="392.13,736.84 391.13,736 401.26,723.87 401.26,689.84 423.06,659.95 423.06,637.08 424.36,637.08 
			424.36,660.37 402.56,690.26 402.56,724.34 		"/>
	</g>
	<g>
		<polygon class="st3" points="441.11,649.18 441.11,658.79 412.28,697.73 412.28,730.91 410.98,731.34 410.98,697.3 439.81,658.36 
			439.81,649.18 		"/>
	</g>
	<g>
		<polygon class="st3" points="435.8,686.21 435.35,686.81 420.78,706.32 420.78,728.07 419.48,728.5 419.48,705.89 434.47,685.82 
			434.76,685.43 		"/>
	</g>
</g>
<polygon class="st10" points="574.61,265.77 546.06,296.21 553.26,302.53 582.13,271.55 "/>
<polygon class="st11" points="553.26,302.53 554.34,303.38 582.32,273.41 623.56,304.11 723.92,194.62 723.92,192.35 623.4,302.19 
	582.13,271.55 "/>
<polygon class="st12" points="554.34,303.38 624.06,352.36 723.92,243.66 723.92,194.62 623.56,304.11 582.32,273.41 "/>
<linearGradient id="SVGID_00000091708255868028671560000011946809045342109598_" gradientUnits="userSpaceOnUse" x1="620.4222" y1="299.1361" x2="716.4222" y2="191.0098">
	<stop  offset="0" style="stop-color:#1F8A5F"/>
	<stop  offset="1" style="stop-color:#4ADBA9"/>
</linearGradient>
<polygon style="fill:url(#SVGID_00000091708255868028671560000011946809045342109598_);" points="614.74,295.76 716.08,186.19 
	723.92,192.35 623.4,302.19 "/>
<circle class="st14" cx="583.52" cy="289.29" r="2.62"/>
<circle class="st14" cx="597.63" cy="307.12" r="2.65"/>
<circle class="st14" cx="579.73" cy="308.49" r="2.46"/>
<circle class="st14" cx="659.12" cy="291.03" r="2.78"/>
<circle class="st14" cx="656.84" cy="277.89" r="2.59"/>
<circle class="st14" cx="716.27" cy="218.84" r="3"/>
<circle class="st14" cx="714.28" cy="236.23" r="2.75"/>
<circle class="st14" cx="700.71" cy="258.66" r="2.75"/>
<polyline class="st14" points="585.47,291.03 619.99,316.26 655.16,279.85 "/>
<polyline class="st14" points="599.9,308.49 620.31,324.22 646.14,297.32 656.96,292.77 "/>
<polyline class="st14" points="661.79,291.73 674.84,279.85 674.84,263.31 685.83,252.69 685.83,246.16 713.86,220.61 "/>
<path class="st14" d="M711.75,237.32l-17.77,10.91c0,0-2.36,6.74-6.15,10.44s-5.22,5.21-5.22,5.21v14.97l-33.92,36.57l-5.49-2.08
	l-22.89,23.68l-38.49-27.24"/>
<line class="st14" x1="699.14" y1="260.92" x2="685.39" y2="275.12"/>
</svg>
